<svg width="120" height="120" viewBox="0 0 120 120" fill="none" xmlns="http://www.w3.org/2000/svg">
<g clip-path="url(#clip0_1264_11818)">
<circle cx="60" cy="60" r="50" fill="#F2F2F2"/>
<path d="M36.0781 61.6396V52.6644L77.3813 48.6561L82.261 46.042L86.6179 52.2288L78.3398 57.2827C75.8302 68.7152 73.5472 79.0671 65.3563 79.0671L46.0989 78.0214L37.908 64.1666L36.0781 61.6396Z" fill="#1F1F31" stroke="#1F1F31" stroke-width="0.546451"/>
<path fill-rule="evenodd" clip-rule="evenodd" d="M31.7216 93.9676C40.9615 93.9676 48.452 86.4772 48.452 77.2372C48.452 67.9973 40.9615 60.5068 31.7216 60.5068C22.4817 60.5068 14.9912 67.9973 14.9912 77.2372C14.9912 86.4772 22.4817 93.9676 31.7216 93.9676ZM31.7248 89.2621C38.366 89.2621 43.7498 83.8783 43.7498 77.2371C43.7498 70.5959 38.366 65.2122 31.7248 65.2122C25.0836 65.2122 19.6998 70.5959 19.6998 77.2371C19.6998 83.8783 25.0836 89.2621 31.7248 89.2621Z" fill="#1F1F31"/>
<circle cx="31.713" cy="77.2369" r="12.025" fill="white"/>
<circle cx="31.7166" cy="77.2376" r="6.971" fill="#1F1F31"/>
<circle cx="31.712" cy="77.063" r="3.83405" fill="#9499A3"/>
<path d="M13.9798 64.7039L20.0835 52.7408C20.2561 52.4024 20.6598 52.2534 21.0108 52.3985L25.9873 54.4555C26.4478 54.6458 26.5857 55.2318 26.2584 55.6075L17.0641 66.1609C16.96 66.2804 16.8198 66.3627 16.6648 66.3953L11.159 67.5544C10.7066 67.6497 10.2812 67.3045 10.2812 66.8422C10.2812 66.5424 10.4651 66.2732 10.7445 66.1642L13.5957 65.0516C13.762 64.9867 13.8987 64.863 13.9798 64.7039Z" fill="#1F1F31" stroke="#1F1F31" stroke-width="0.546451"/>
<path fill-rule="evenodd" clip-rule="evenodd" d="M95.8539 93.9676C105.094 93.9676 112.584 86.4772 112.584 77.2372C112.584 67.9973 105.094 60.5068 95.8539 60.5068C86.614 60.5068 79.1235 67.9973 79.1235 77.2372C79.1235 86.4772 86.614 93.9676 95.8539 93.9676ZM95.8571 89.2621C102.498 89.2621 107.882 83.8783 107.882 77.2371C107.882 70.5959 102.498 65.2122 95.8571 65.2122C89.2159 65.2122 83.8322 70.5959 83.8322 77.2371C83.8322 83.8783 89.2159 89.2621 95.8571 89.2621Z" fill="#1F1F31"/>
<circle cx="95.8453" cy="77.2369" r="12.025" fill="white"/>
<circle cx="95.8494" cy="77.2376" r="6.971" fill="#1F1F31"/>
<circle cx="95.6749" cy="77.063" r="3.83405" fill="#9499A3"/>
<path d="M18.3493 53.1742L14.7159 47.0923C14.5714 46.8503 14.636 46.5365 14.8979 46.4322C16.1596 45.9299 18.5821 46.0116 19.8079 46.1368C19.8456 46.1407 19.8816 46.1485 19.9177 46.1602L37.6975 51.9319C37.9227 52.005 38.0752 52.2148 38.0752 52.4516V55.5959C38.0752 55.6739 38.0585 55.751 38.0262 55.822L37.3881 57.2259C37.2808 57.4619 37.0224 57.5901 36.7696 57.5326L18.6974 53.4269C18.5517 53.3938 18.4259 53.3025 18.3493 53.1742Z" fill="white" stroke="#1F1F31" stroke-width="0.894748"/>
<path d="M70.7533 43.6429C57.9964 41.9699 50.1017 50.4397 47.749 54.8837L69.4841 56.7075C71.5298 56.8792 73.6099 56.3028 75.0254 54.8158C78.8701 50.7765 81.3957 45.0387 70.7533 43.6429Z" fill="white" stroke="#1F1F31" stroke-width="0.894748"/>
<path d="M77.5554 50.8345C72.7779 52.8154 57.6561 51.9481 50.0745 51.2587C49.0427 52.4627 48.0927 53.7002 47.5801 54.6685L69.4516 56.4984C71.4545 56.7453 73.572 56.0365 74.9352 54.6223C76.0824 53.432 76.9329 52.1748 77.5554 50.8345Z" fill="#9499A3"/>
<path d="M78.8579 42.8182L81.6463 48.3079L85.916 45.5195L83.6505 40.2041L78.8579 42.8182Z" fill="#1F1F31"/>
<path d="M97.1578 62.2491C98.4924 62.2491 99.7917 62.3999 101.04 62.6853C101.097 62.6983 101.156 62.6979 101.213 62.6832C102.286 62.4023 103.274 61.9935 104.033 61.3987C104.221 61.2514 104.189 60.9679 103.982 60.8498C101.455 59.4112 98.5309 58.5894 95.4151 58.5894C85.8382 58.5894 78.0747 66.3529 78.0747 75.9297C78.0747 76.7612 78.1332 77.579 78.2464 78.3793C78.2704 78.5491 78.414 78.6821 78.5824 78.6498C79.0588 78.5582 79.4948 78.1882 79.8658 77.7145C79.9059 77.6633 79.9301 77.6011 79.9377 77.5365C80.9532 68.9273 88.2756 62.2491 97.1578 62.2491Z" fill="white" stroke="#1F1F31" stroke-width="0.894748"/>
<path d="M22.85 51.0961C20.4798 50.6082 20.1197 47.2911 20.2359 45.6936C24.767 45.6936 31.6318 44.9093 38.4476 47.0878C43.2615 48.6265 50.763 48.482 54.0452 47.872C51.8668 49.4405 50.124 54.3202 49.4269 55.1044C48.7298 55.8887 37.4019 55.9758 35.6592 53.3617C33.9164 50.7476 25.8127 51.7061 22.85 51.0961Z" fill="#1F1F31" stroke="#1F1F31" stroke-width="0.546451"/>
<path fill-rule="evenodd" clip-rule="evenodd" d="M95.9067 77.5624C95.2737 77.871 94.5104 77.6079 94.2019 76.9749L80.1573 48.1592C79.8487 47.5261 80.1118 46.7629 80.7448 46.4544L80.8023 46.4263C81.4353 46.1178 82.1986 46.3808 82.5071 47.0138L96.5518 75.8296C96.8603 76.4626 96.5973 77.2259 95.9643 77.5344L95.9067 77.5624Z" fill="#1F1F31"/>
<path d="M31.821 77.5346L31.8785 77.5627C32.5115 77.8712 33.2748 77.6082 33.5833 76.9752L44.8988 53.7588C45.1973 53.1465 44.9617 52.4077 44.3639 52.0812L44.3077 52.0504C43.6693 51.7017 42.869 51.9569 42.5503 52.6108L31.2334 75.8298C30.9249 76.4629 31.188 77.2261 31.821 77.5346Z" fill="#1F1F31"/>
<rect x="66.2241" y="42.5571" width="4.8797" height="1.91702" rx="0.546451" fill="#1F1F31"/>
<path d="M44.1985 58.1006L44.9656 56.6026C45.2681 56.0118 45.8969 55.6617 46.5584 55.7158L60.35 56.8434C61.3951 56.9288 62.0924 57.9599 61.7826 58.9616L59.7487 65.5382C59.5237 66.2656 58.8275 66.7424 58.0679 66.6891L51.584 66.2346C51.0498 66.1971 50.5676 65.9011 50.2924 65.4417L50.173 65.2424C49.8768 64.7481 49.3429 64.4456 48.7667 64.4456H48.5436C48.0198 64.4456 47.5275 64.1953 47.2189 63.772L44.333 59.8136C43.9686 59.3137 43.9166 58.6513 44.1985 58.1006Z" fill="white" stroke="#1F1F31" stroke-width="0.546451"/>
<path d="M70.0846 58.2728L64.9245 57.9178C64.6871 57.9014 64.4448 57.9244 64.2214 58.0063C60.3147 59.4386 64.3329 63.4551 65.8739 64.14C66.5538 64.4421 68.0176 64.5889 69.512 64.651C71.7317 64.7432 74.7396 63.1836 74.5775 60.9679C74.4161 58.7608 72.2924 58.4247 70.0846 58.2728Z" fill="#9499A3"/>
<circle cx="41.3018" cy="57.5449" r="2.0913" fill="white"/>
<circle cx="41.3035" cy="57.5437" r="1.04565" fill="#9499A3"/>
<rect x="20.0405" y="27.5684" width="20.8681" height="20.3902" rx="3.64301" fill="#1F1F31"/>
<path d="M28.5796 27.5684H32.7622V34.7136C32.7622 35.8686 31.8259 36.8049 30.6709 36.8049C29.5159 36.8049 28.5796 35.8686 28.5796 34.7136V27.5684Z" fill="white"/>
<circle cx="30.7583" cy="34.1045" r="1.13279" fill="#1F1F31"/>
<path d="M77.6689 39.0355L78.8399 34.8617C78.9469 34.4804 78.894 34.0718 78.6935 33.7303L76.7642 30.4446" stroke="#1F1F31" stroke-width="0.956127" stroke-linecap="round"/>
<path d="M76.1622 33.4938C77.0285 33.4938 77.7307 31.8163 77.7307 29.7469C77.7307 27.6775 77.0285 26 76.1622 26C75.296 26 74.5938 27.6775 74.5938 29.7469C74.5938 31.8163 75.296 33.4938 76.1622 33.4938Z" fill="#1F1F31"/>
<path d="M18.7309 75.2018C18.8214 73.9349 18.9017 73.3477 19.0371 72.4314C19.1561 71.625 19.9111 71.0677 20.7161 71.1956L67.0019 78.5438C70.6908 78.8118 71.0121 77.0546 70.7391 75.6073C70.6242 74.9982 70.9891 74.3724 71.6037 74.2923C72.0705 74.2314 72.5212 74.5178 72.625 74.9769C73.78 80.0834 69.1796 80.6546 67.2698 80.4609L20.0629 76.739C19.2726 76.6767 18.6744 75.9926 18.7309 75.2018Z" fill="white" stroke="#1F1F31" stroke-width="0.894748"/>
<path d="M57.4506 72.6021L58.7093 68.4801C58.9883 67.5667 59.8732 66.9771 60.8236 67.0715L67.3796 67.7225C68.1973 67.8037 68.8825 68.3759 69.1082 69.166L70.1274 72.7339C70.2391 73.1248 70.2292 73.5404 70.0991 73.9255L69.5291 75.6129C69.2305 76.4968 68.3613 77.0577 67.4328 76.9655L59.5336 76.181C58.7676 76.1049 58.113 75.5968 57.8492 74.8737L57.4845 73.8738C57.3354 73.4649 57.3234 73.0184 57.4506 72.6021Z" fill="#9499A3" stroke="#1F1F31" stroke-width="0.546451"/>
<path d="M60.0379 72.3359L60.7686 69.943C60.9462 69.3617 61.5093 68.9865 62.1141 69.0465L65.9393 69.4264C66.4597 69.4781 66.8957 69.8422 67.0393 70.345L67.6311 72.4165C67.7022 72.6652 67.6959 72.9297 67.6131 73.1748L67.2968 74.1109C67.1068 74.6734 66.5537 75.0303 65.9629 74.9717L61.3262 74.5112C60.8387 74.4628 60.4221 74.1395 60.2543 73.6793L60.0595 73.1452C59.9646 72.8849 59.957 72.6008 60.0379 72.3359Z" fill="white" stroke="#1F1F31" stroke-width="0.447374"/>
<circle cx="58.0325" cy="59.4612" r="1.04565" fill="#9499A3"/>
<path d="M82.1645 45.9545L78.7968 39.864C78.3478 39.0519 77.4931 38.5479 76.5652 38.5479H74.9321" stroke="#1F1F31" stroke-width="1.63935"/>
<ellipse cx="74.9371" cy="38.4616" rx="0.871375" ry="1.65561" transform="rotate(-5.30187 74.9371 38.4616)" fill="#1F1F31"/>
<path fill-rule="evenodd" clip-rule="evenodd" d="M69.0913 38.5163L74.5913 37.3286L75.1245 39.8878L69.6245 41.0755L69.0913 38.5163Z" fill="#1F1F31"/>
<path d="M82.3647 44.311L80.9933 38.9865C80.9645 38.8748 80.9903 38.756 81.0629 38.6664L82.243 37.2086C82.3513 37.0748 82.5402 37.0357 82.6929 37.1153C90.537 41.2032 94.5973 46.9588 91.8397 51.0953C89.6664 54.3553 84.8904 54.4061 82.6046 54.0036C82.493 53.9839 82.3994 53.9112 82.3492 53.8095L79.0842 47.1979C79.0035 47.0345 79.056 46.8366 79.2071 46.7347L82.2158 44.7038C82.3435 44.6176 82.4032 44.4603 82.3647 44.311Z" fill="white" stroke="#1F1F31" stroke-width="0.894748"/>
<path d="M88.8482 45.8342L91.138 44.6546C91.3276 44.557 91.5599 44.6414 91.6341 44.8413C92.1603 46.2606 92.8345 48.8673 92.2646 50.5438C92.2215 50.6708 92.1041 50.7548 91.9707 50.7674L89.7404 50.9764C89.5486 50.9944 89.3759 50.86 89.3464 50.6696L88.655 46.2139C88.631 46.059 88.7088 45.906 88.8482 45.8342Z" fill="#1F1F31" stroke="#1F1F31" stroke-width="0.546451"/>
<path d="M80.9434 38.7207C83.0637 40.4635 87.5658 44.3149 88.6115 45.7788" stroke="#1F1F31" stroke-width="0.894748"/>
<path d="M78.9434 47.5216L88.7028 45.9531L89.3999 51.0071L82.7774 54.0569" stroke="#1F1F31" stroke-width="0.894748"/>
<path d="M0 94H119.896" stroke="#1F1F31" stroke-width="0.894748" stroke-linecap="round" stroke-linejoin="round"/>
</g>
<defs>
<clipPath id="clip0_1264_11818">
<rect width="120" height="120" fill="white"/>
</clipPath>
</defs>
</svg>
