<svg width="120" height="120" viewBox="0 0 120 120" fill="none" xmlns="http://www.w3.org/2000/svg">
<g clip-path="url(#clip0_23_91)">
<mask id="mask0_23_91" style="mask-type:luminance" maskUnits="userSpaceOnUse" x="0" y="0" width="120" height="120">
<path d="M120 0H0V120H120V0Z" fill="white"/>
</mask>
<g mask="url(#mask0_23_91)">
<path d="M60 110C87.6142 110 110 87.6142 110 60C110 32.3858 87.6142 10 60 10C32.3858 10 10 32.3858 10 60C10 87.6142 32.3858 110 60 110Z" fill="#F2F2F2"/>
<path d="M0 94H119.896" stroke="#1F1F31" stroke-width="0.894748" stroke-linecap="round" stroke-linejoin="round"/>
</g>
<path d="M67.6504 84.3999H73.3046V66.2469H67.6504V84.3999Z" fill="#1F1F31"/>
<path d="M68.3343 66.2454H3.28137C2.34456 66.2454 1.58521 66.382 1.58521 66.5504V75.4632C1.58521 75.6318 2.34456 75.7682 3.28137 75.7682H68.3343C69.2711 75.7682 70.0306 75.6318 70.0306 75.4632V66.5504C70.0306 66.382 69.2711 66.2454 68.3343 66.2454Z" fill="white" stroke="#1F1F31" stroke-width="0.964892" stroke-miterlimit="10"/>
<path d="M86.3205 35H72.8012C72.0928 35 71.5156 35.5743 71.5156 36.2856V82.2243C71.5156 82.9327 72.0899 83.5099 72.8012 83.5099H113.086C113.794 83.5099 114.371 82.9356 114.371 82.2243L113.924 65.5981C113.826 61.9675 112.616 58.456 110.453 55.5366L100.536 42.16C97.2005 37.6575 91.9272 35.0029 86.3236 35.0029L86.3205 35Z" fill="white" stroke="#1F1F31" stroke-width="0.964892" stroke-miterlimit="10"/>
<path d="M96.5161 82.7637C96.5161 83.3202 96.4745 83.8677 96.3971 84.4004H74.3161C74.2386 83.8677 74.197 83.3202 74.197 82.7637C74.197 80.1151 75.1195 77.6838 76.661 75.7703C78.7055 73.229 81.8421 71.6041 85.3566 71.6041C88.8711 71.6041 92.0076 73.229 94.0521 75.7703C95.5936 77.6838 96.5161 80.1151 96.5161 82.7637Z" fill="#1F1F31"/>
<path d="M8.04147 76.0671H0.185212C-0.357244 76.0671 -0.796875 76.8735 -0.796875 77.8683V81.1105C-0.796875 82.1053 -0.357244 82.9116 0.185212 82.9116H8.04147C8.58393 82.9116 9.02356 82.1053 9.02356 81.1105V77.8683C9.02356 76.8735 8.58393 76.0671 8.04147 76.0671Z" fill="#1F1F31" stroke="#1F1F31" stroke-width="0.673181" stroke-miterlimit="10"/>
<path d="M82.8288 57.9143H79.2577C78.7646 57.9143 78.365 58.3141 78.365 58.807V59.1047C78.365 59.5977 78.7646 59.9974 79.2577 59.9974H82.8288C83.3219 59.9974 83.7215 59.5977 83.7215 59.1047V58.807C83.7215 58.3141 83.3219 57.9143 82.8288 57.9143Z" fill="#1F1F31"/>
<path d="M106.932 75.7705V84.4006H4.56097C2.91842 84.4006 1.58521 83.0674 1.58521 81.4247V75.7705H106.932Z" fill="#1F1F31"/>
<path d="M98.4522 80.5309C98.4522 81.8849 98.2261 83.1883 97.8094 84.3996H75.2878C74.8713 83.1883 74.645 81.8849 74.645 80.5309C74.645 78.8376 74.9992 77.2277 75.6391 75.7695C77.4752 71.5645 81.6682 68.6273 86.5487 68.6273C91.4292 68.6273 95.6222 71.5645 97.4583 75.7695C98.0981 77.2277 98.4522 78.8376 98.4522 80.5309Z" fill="#1F1F31"/>
<path d="M86.6935 93.3262C91.624 93.3262 95.6212 89.3292 95.6212 84.3985C95.6212 79.4679 91.624 75.4709 86.6935 75.4709C81.7629 75.4709 77.7659 79.4679 77.7659 84.3985C77.7659 89.3292 81.7629 93.3262 86.6935 93.3262Z" fill="#1F1F31"/>
<path d="M86.6558 88.7693C89.0291 88.7693 90.9529 86.8454 90.9529 84.4721C90.9529 82.0988 89.0291 80.175 86.6558 80.175C84.2825 80.175 82.3586 82.0988 82.3586 84.4721C82.3586 86.8454 84.2825 88.7693 86.6558 88.7693Z" fill="#9499A3"/>
<path d="M86.657 86.4584C87.7532 86.4584 88.642 85.5696 88.642 84.4735C88.642 83.3772 87.7532 82.4885 86.657 82.4885C85.5607 82.4885 84.6721 83.3772 84.6721 84.4735C84.6721 85.5696 85.5607 86.4584 86.657 86.4584Z" fill="#1F1F31"/>
<path d="M84.0891 83.3578C84.4179 83.3578 84.6843 83.0914 84.6843 82.7626C84.6843 82.434 84.4179 82.1675 84.0891 82.1675C83.7605 82.1675 83.4939 82.434 83.4939 82.7626C83.4939 83.0914 83.7605 83.3578 84.0891 83.3578Z" fill="#1F1F31"/>
<path d="M89.1499 83.3578C89.4785 83.3578 89.7451 83.0914 89.7451 82.7626C89.7451 82.434 89.4785 82.1675 89.1499 82.1675C88.8211 82.1675 88.5547 82.434 88.5547 82.7626C88.5547 83.0914 88.8211 83.3578 89.1499 83.3578Z" fill="#1F1F31"/>
<path d="M84.0891 86.9295C84.4179 86.9295 84.6843 86.663 84.6843 86.3343C84.6843 86.0056 84.4179 85.7392 84.0891 85.7392C83.7605 85.7392 83.4939 86.0056 83.4939 86.3343C83.4939 86.663 83.7605 86.9295 84.0891 86.9295Z" fill="#1F1F31"/>
<path d="M89.1499 86.9295C89.4785 86.9295 89.7451 86.663 89.7451 86.3343C89.7451 86.0056 89.4785 85.7392 89.1499 85.7392C88.8211 85.7392 88.5547 86.0056 88.5547 86.3343C88.5547 86.663 88.8211 86.9295 89.1499 86.9295Z" fill="#1F1F31"/>
<path d="M30.0493 81.1253H12.3993C10.471 81.1253 9.23896 79.0661 10.1556 77.3669L13.0214 72.0489C13.4647 71.2246 14.3277 70.7097 15.2651 70.7097H27.1835C28.1211 70.7097 28.984 71.2246 29.4274 72.0489L32.2932 77.3669C33.2097 79.0661 31.9777 81.1253 30.0493 81.1253Z" fill="#1F1F31"/>
<path d="M105.445 75.7705H116.456V79.1243C116.456 82.0377 114.091 84.4006 111.18 84.4006H105.445V75.7705Z" fill="#1F1F31"/>
<path d="M21.2249 93.3262C26.1554 93.3262 30.1524 89.3292 30.1524 84.3985C30.1524 79.4679 26.1554 75.4709 21.2249 75.4709C16.2943 75.4709 12.2971 79.4679 12.2971 84.3985C12.2971 89.3292 16.2943 93.3262 21.2249 93.3262Z" fill="#1F1F31"/>
<path d="M21.187 88.7693C23.5603 88.7693 25.4842 86.8454 25.4842 84.4721C25.4842 82.0988 23.5603 80.175 21.187 80.175C18.8138 80.175 16.8899 82.0988 16.8899 84.4721C16.8899 86.8454 18.8138 88.7693 21.187 88.7693Z" fill="#9499A3"/>
<path d="M21.1883 86.4584C22.2844 86.4584 23.1732 85.5696 23.1732 84.4735C23.1732 83.3772 22.2844 82.4885 21.1883 82.4885C20.092 82.4885 19.2034 83.3772 19.2034 84.4735C19.2034 85.5696 20.092 86.4584 21.1883 86.4584Z" fill="#1F1F31"/>
<path d="M18.6203 83.3578C18.9491 83.3578 19.2155 83.0914 19.2155 82.7626C19.2155 82.434 18.9491 82.1675 18.6203 82.1675C18.2917 82.1675 18.0251 82.434 18.0251 82.7626C18.0251 83.0914 18.2917 83.3578 18.6203 83.3578Z" fill="#1F1F31"/>
<path d="M23.6811 83.3578C24.0097 83.3578 24.2763 83.0914 24.2763 82.7626C24.2763 82.434 24.0097 82.1675 23.6811 82.1675C23.3523 82.1675 23.0859 82.434 23.0859 82.7626C23.0859 83.0914 23.3523 83.3578 23.6811 83.3578Z" fill="#1F1F31"/>
<path d="M18.6203 86.9295C18.9491 86.9295 19.2155 86.663 19.2155 86.3343C19.2155 86.0056 18.9491 85.7392 18.6203 85.7392C18.2917 85.7392 18.0251 86.0056 18.0251 86.3343C18.0251 86.663 18.2917 86.9295 18.6203 86.9295Z" fill="#1F1F31"/>
<path d="M23.6811 86.9295C24.0097 86.9295 24.2763 86.663 24.2763 86.3343C24.2763 86.0056 24.0097 85.7392 23.6811 85.7392C23.3523 85.7392 23.0859 86.0056 23.0859 86.3343C23.0859 86.663 23.3523 86.9295 23.6811 86.9295Z" fill="#1F1F31"/>
<path d="M104.354 56.564V57.7663C104.354 57.9448 104.321 58.1175 104.261 58.2781C104.056 58.8466 103.508 59.2542 102.865 59.2542H96.9227C96.4257 59.2542 95.9615 59.0072 95.6877 58.5936L95.0062 57.5788C94.8782 57.3883 94.7473 57.2039 94.6103 57.0223C93.9201 56.0849 93.1136 55.2368 92.2149 54.4958L91.2537 53.7011C90.9858 53.481 90.6525 53.362 90.3072 53.362H78.9573C78.1358 53.362 77.4692 52.6954 77.4692 51.874V41.8452C77.4692 41.024 78.1358 40.3574 78.9573 40.3574H91.4619C91.8696 40.3574 92.2594 40.524 92.5393 40.8186L95.9615 44.4164C97.9137 46.4668 99.6575 48.7047 101.169 51.0972L102.017 52.4364L104.124 55.7665C104.196 55.8796 104.252 56.0046 104.288 56.1325C104.333 56.2723 104.354 56.4182 104.354 56.564Z" fill="#9499A3" stroke="#1F1F31" stroke-width="0.964892" stroke-miterlimit="10"/>
<path d="M93.3044 55.4337L97.0421 51.1673C97.4206 50.7353 98.0799 50.6918 98.5118 51.0702C98.9439 51.4486 98.9875 52.1079 98.609 52.54L94.8714 56.8065L93.3044 55.4337Z" fill="#1F1F31"/>
<path d="M104.224 57.0215H102.796C102.45 57.0215 102.171 57.3012 102.171 57.6463V60.8603C102.171 61.2054 102.45 61.4852 102.796 61.4852H104.224C104.569 61.4852 104.849 61.2054 104.849 60.8603V57.6463C104.849 57.3012 104.569 57.0215 104.224 57.0215Z" fill="#1F1F31"/>
<path d="M104.288 56.1317L104.262 58.2772C104.056 58.8456 103.509 59.2533 102.866 59.2533H96.9231C96.426 59.2533 95.9619 59.0064 95.688 58.5927L95.0065 57.5779C94.8786 57.3875 94.7477 57.203 94.6108 57.0214L102.018 52.4355L104.125 55.7655C104.196 55.8787 104.253 56.0036 104.288 56.1317Z" fill="#1F1F31"/>
<path d="M101.186 54.3439H102.115C103.621 54.3439 104.847 55.567 104.847 57.0758V58.4953C104.847 58.9953 104.439 59.4031 103.939 59.4031H99.6836C99.1837 59.4031 98.7759 58.9953 98.7759 58.4953V56.7574C98.7759 55.4273 99.8561 54.347 101.186 54.347V54.3439Z" fill="#1F1F31"/>
<path d="M79.7804 45.4152C81.2981 45.4152 82.5301 46.6472 82.5301 48.1649V52.5365C82.5301 53.0423 82.1194 53.4501 81.6165 53.4501H78.2686C77.7626 53.4501 77.355 53.0394 77.355 52.5365V47.8434C77.355 46.5044 78.4441 45.4152 79.7833 45.4152H79.7804Z" fill="#1F1F31"/>
<path d="M62.3809 78.7458H53.5723C52.9641 78.7458 52.4712 79.5522 52.4712 80.547V83.7892C52.4712 84.784 52.9641 85.5904 53.5723 85.5904H62.3809C62.9891 85.5904 63.482 84.784 63.482 83.7892V80.547C63.482 79.5522 62.9891 78.7458 62.3809 78.7458Z" fill="white" stroke="#1F1F31" stroke-width="0.964892" stroke-miterlimit="10"/>
<path d="M114.282 68.1086C115.901 68.3523 117.142 69.7487 117.142 71.4348V72.03C117.142 73.7162 115.901 75.1125 114.282 75.3561V68.1086Z" fill="#1F1F31" stroke="#1F1F31" stroke-width="1.00977"/>
<path d="M-6 93.7212H122.841" stroke="#1F1F31" stroke-width="0.964892" stroke-linecap="round" stroke-linejoin="round"/>
<path d="M49.3662 46H24.6338C20.97 46 18 47.5998 18 49.5733V62.4267C18 64.4002 20.97 66 24.6338 66H49.3662C53.03 66 56 64.4002 56 62.4267V49.5733C56 47.5998 53.03 46 49.3662 46Z" fill="#1F1F31"/>
<path d="M26.5391 46H30.7217V53.1452C30.7217 54.3002 29.7854 55.2365 28.6304 55.2365C27.4754 55.2365 26.5391 54.3002 26.5391 53.1452V46Z" fill="white"/>
<path d="M26.5391 46H30.7217V53.1452C30.7217 54.3002 29.7854 55.2365 28.6304 55.2365C27.4754 55.2365 26.5391 54.3002 26.5391 53.1452V46Z" fill="white"/>
<path d="M28.7178 53.6689C29.3434 53.6689 29.8505 53.1617 29.8505 52.5361C29.8505 51.9105 29.3434 51.4033 28.7178 51.4033C28.0921 51.4033 27.585 51.9105 27.585 52.5361C27.585 53.1617 28.0921 53.6689 28.7178 53.6689Z" fill="#1F1F31"/>
<path d="M40 46H44.1826V53.1452C44.1826 54.3002 43.2463 55.2365 42.0913 55.2365C40.9363 55.2365 40 54.3002 40 53.1452V46Z" fill="white"/>
<path d="M42.1787 53.6689C42.8043 53.6689 43.3115 53.1617 43.3115 52.5361C43.3115 51.9105 42.8043 51.4033 42.1787 51.4033C41.5531 51.4033 41.0459 51.9105 41.0459 52.5361C41.0459 53.1617 41.5531 53.6689 42.1787 53.6689Z" fill="#1F1F31"/>
</g>
<defs>
<clipPath id="clip0_23_91">
<rect width="120" height="120" fill="white"/>
</clipPath>
</defs>
</svg>
