<svg width="120" height="120" viewBox="0 0 120 120" fill="none" xmlns="http://www.w3.org/2000/svg">
<circle cx="60" cy="60" r="50" fill="#F2F2F2"/>
<path d="M71.9726 83.0835H76.8096V39.7258H71.9726V83.0835Z" fill="#1F1F31"/>
<path d="M72.5608 29H16.9101C16.1087 29 15.459 29.6676 15.459 30.4911V74.0738C15.459 74.8974 16.1087 75.565 16.9101 75.565H72.5608C73.3622 75.565 74.0119 74.8974 74.0119 74.0738V30.4911C74.0119 29.6676 73.3622 29 72.5608 29Z" fill="white" stroke="#1F1F31" stroke-width="0.855171" stroke-miterlimit="10"/>
<path d="M21.085 33.3514H68.6332C69.116 33.3514 69.5074 33.7428 69.5074 34.2257V65.8917C69.5074 66.3746 69.116 66.766 68.6332 66.766H21.085C20.6022 66.766 20.2108 66.3746 20.2108 65.8917V34.2257C20.2108 33.7428 20.6022 33.3514 21.085 33.3514Z" stroke="#1F1F31" stroke-width="0.855171"/>
<path d="M87.9475 39.7261H76.382C75.7761 39.7261 75.2822 40.231 75.2822 40.8562V81.2395C75.2822 81.8621 75.7736 82.3696 76.382 82.3696H110.844C111.45 82.3696 111.944 81.8647 111.944 81.2395L111.562 66.6239C111.478 63.4324 110.442 60.3455 108.591 57.7792L100.109 46.0202C97.2548 42.0622 92.7437 39.7287 87.95 39.7287L87.9475 39.7261Z" fill="white" stroke="#1F1F31" stroke-width="0.855171" stroke-miterlimit="10"/>
<path d="M96.6651 81.7119C96.6651 82.2011 96.6295 82.6824 96.5633 83.1507H77.6736C77.6074 82.6824 77.5718 82.2011 77.5718 81.7119C77.5718 79.3836 78.361 77.2464 79.6797 75.5643C81.4286 73.3302 84.1119 71.9019 87.1184 71.9019C90.125 71.9019 92.8083 73.3302 94.5572 75.5643C95.8759 77.2464 96.6651 79.3836 96.6651 81.7119Z" fill="#1F1F31"/>
<path d="M20.9789 75.8267H14.2581C13.7941 75.8267 13.418 76.5356 13.418 77.41V80.2601C13.418 81.1346 13.7941 81.8435 14.2581 81.8435H20.9789C21.4429 81.8435 21.819 81.1346 21.819 80.2601V77.41C21.819 76.5356 21.4429 75.8267 20.9789 75.8267Z" fill="#1F1F31" stroke="#1F1F31" stroke-width="0.520735" stroke-miterlimit="10"/>
<path d="M84.9549 59.8687H81.9C81.4782 59.8687 81.1362 60.22 81.1362 60.6535V60.9151C81.1362 61.3485 81.4782 61.6999 81.9 61.6999H84.9549C85.3767 61.6999 85.7186 61.3485 85.7186 60.9151V60.6535C85.7186 60.22 85.3767 59.8687 84.9549 59.8687Z" fill="#1F1F31"/>
<path d="M105.58 75.5649V83.1514H18.0048C16.5995 83.1514 15.459 81.9794 15.459 80.5354V75.5649H105.58Z" fill="#1F1F31"/>
<path d="M98.3233 79.7502C98.3233 80.9405 98.1298 82.0863 97.7734 83.151H78.5069C78.1505 82.0863 77.957 80.9405 77.957 79.7502C77.957 78.2617 78.26 76.8464 78.8073 75.5646C80.3781 71.8681 83.9651 69.2861 88.1401 69.2861C92.3152 69.2861 95.9022 71.8681 97.473 75.5646C98.0203 76.8464 98.3233 78.2617 98.3233 79.7502Z" fill="#1F1F31"/>
<path d="M88.2291 90.9983C92.4471 90.9983 95.8665 87.4846 95.8665 83.1503C95.8665 78.8159 92.4471 75.3022 88.2291 75.3022C84.0111 75.3022 80.5918 78.8159 80.5918 83.1503C80.5918 87.4846 84.0111 90.9983 88.2291 90.9983Z" fill="#1F1F31"/>
<path d="M88.201 86.992C90.2313 86.992 91.8771 85.3008 91.8771 83.2145C91.8771 81.1283 90.2313 79.437 88.201 79.437C86.1708 79.437 84.5249 81.1283 84.5249 83.2145C84.5249 85.3008 86.1708 86.992 88.201 86.992Z" fill="#707582"/>
<path d="M88.1975 84.9605C89.1353 84.9605 89.8956 84.1793 89.8956 83.2156C89.8956 82.2519 89.1353 81.4707 88.1975 81.4707C87.2597 81.4707 86.4995 82.2519 86.4995 83.2156C86.4995 84.1793 87.2597 84.9605 88.1975 84.9605Z" fill="#1F1F31"/>
<path d="M85.9667 82.2324C86.2479 82.2324 86.4758 81.9982 86.4758 81.7092C86.4758 81.4203 86.2479 81.186 85.9667 81.186C85.6855 81.186 85.4575 81.4203 85.4575 81.7092C85.4575 81.9982 85.6855 82.2324 85.9667 82.2324Z" fill="#1F1F31"/>
<path d="M90.2958 82.2324C90.577 82.2324 90.8049 81.9982 90.8049 81.7092C90.8049 81.4203 90.577 81.186 90.2958 81.186C90.0146 81.186 89.7866 81.4203 89.7866 81.7092C89.7866 81.9982 90.0146 82.2324 90.2958 82.2324Z" fill="#1F1F31"/>
<path d="M85.9667 85.3711C86.2479 85.3711 86.4758 85.1369 86.4758 84.8479C86.4758 84.559 86.2479 84.3247 85.9667 84.3247C85.6855 84.3247 85.4575 84.559 85.4575 84.8479C85.4575 85.1369 85.6855 85.3711 85.9667 85.3711Z" fill="#1F1F31"/>
<path d="M90.2958 85.3711C90.577 85.3711 90.8049 85.1369 90.8049 84.8479C90.8049 84.559 90.577 84.3247 90.2958 84.3247C90.0146 84.3247 89.7866 84.559 89.7866 84.8479C89.7866 85.1369 90.0146 85.3711 90.2958 85.3711Z" fill="#1F1F31"/>
<path d="M39.8054 80.2732H24.7064C23.0568 80.2732 22.0028 78.4629 22.7869 76.9692L25.2385 72.2944C25.6178 71.5698 26.3561 71.1172 27.158 71.1172H37.3539C38.1558 71.1172 38.894 71.5698 39.2734 72.2944L41.725 76.9692C42.5091 78.4629 41.4551 80.2732 39.8054 80.2732Z" fill="#1F1F31"/>
<path d="M104.306 75.5649H113.725V78.5132C113.725 81.0743 111.701 83.1514 109.211 83.1514H104.306V75.5649Z" fill="#1F1F31"/>
<path d="M32.256 90.9983C36.474 90.9983 39.8933 87.4846 39.8933 83.1503C39.8933 78.8159 36.474 75.3022 32.256 75.3022C28.038 75.3022 24.6187 78.8159 24.6187 83.1503C24.6187 87.4846 28.038 90.9983 32.256 90.9983Z" fill="#1F1F31"/>
<path d="M32.2279 86.9935C34.2581 86.9935 35.904 85.3023 35.904 83.216C35.904 81.1297 34.2581 79.4385 32.2279 79.4385C30.1976 79.4385 28.5518 81.1297 28.5518 83.216C28.5518 85.3023 30.1976 86.9935 32.2279 86.9935Z" fill="#707582"/>
<path d="M32.2278 84.9585C33.1656 84.9585 33.9259 84.1773 33.9259 83.2136C33.9259 82.25 33.1656 81.4688 32.2278 81.4688C31.29 81.4688 30.5298 82.25 30.5298 83.2136C30.5298 84.1773 31.29 84.9585 32.2278 84.9585Z" fill="#1F1F31"/>
<path d="M30.0262 82.2349C30.3074 82.2349 30.5354 82.0006 30.5354 81.7117C30.5354 81.4227 30.3074 81.1885 30.0262 81.1885C29.745 81.1885 29.5171 81.4227 29.5171 81.7117C29.5171 82.0006 29.745 82.2349 30.0262 82.2349Z" fill="#1F1F31"/>
<path d="M34.3549 82.2349C34.6361 82.2349 34.864 82.0006 34.864 81.7117C34.864 81.4227 34.6361 81.1885 34.3549 81.1885C34.0737 81.1885 33.8457 81.4227 33.8457 81.7117C33.8457 82.0006 34.0737 82.2349 34.3549 82.2349Z" fill="#1F1F31"/>
<path d="M30.0262 85.375C30.3074 85.375 30.5354 85.1408 30.5354 84.8518C30.5354 84.5629 30.3074 84.3286 30.0262 84.3286C29.745 84.3286 29.5171 84.5629 29.5171 84.8518C29.5171 85.1408 29.745 85.375 30.0262 85.375Z" fill="#1F1F31"/>
<path d="M34.3549 85.375C34.6361 85.375 34.864 85.1408 34.864 84.8518C34.864 84.5629 34.6361 84.3286 34.3549 84.3286C34.0737 84.3286 33.8457 84.5629 33.8457 84.8518C33.8457 85.1408 34.0737 85.375 34.3549 85.375Z" fill="#1F1F31"/>
<path d="M103.371 58.6809V59.7377C103.371 59.8947 103.343 60.0464 103.292 60.1877C103.116 60.6873 102.648 61.0457 102.098 61.0457H97.0138C96.5887 61.0457 96.1915 60.8286 95.9573 60.465L95.3743 59.5729C95.2649 59.4055 95.1529 59.2433 95.0358 59.0837C94.4451 58.2597 93.7552 57.5141 92.9864 56.8627L92.1641 56.1643C91.935 55.9707 91.6499 55.866 91.3546 55.866H81.645C80.9423 55.866 80.3721 55.2801 80.3721 54.558V45.7421C80.3721 45.0201 80.9423 44.4341 81.645 44.4341H92.3423C92.6911 44.4341 93.0246 44.5806 93.2639 44.8396L96.1915 48.0023C97.8616 49.8047 99.3534 51.772 100.647 53.8753L101.372 55.0525L103.175 57.9798C103.236 58.0792 103.284 58.1891 103.315 58.3015C103.353 58.4245 103.371 58.5527 103.371 58.6809Z" fill="#9499A3" stroke="#1F1F31" stroke-width="0.855171" stroke-miterlimit="10"/>
<path d="M4 91H116.045" stroke="#1F1F31" stroke-width="0.854359" stroke-linecap="round" stroke-linejoin="round"/>
<path d="M93.9189 57.6865L97.1163 53.936C97.4401 53.5563 98.0041 53.518 98.3737 53.8507C98.7433 54.1834 98.7805 54.7629 98.4568 55.1427L95.2594 58.8932L93.9189 57.6865Z" fill="#1F1F31"/>
<path d="M103.261 59.085H102.039C101.744 59.085 101.504 59.3309 101.504 59.6343V62.4596C101.504 62.763 101.744 63.009 102.039 63.009H103.261C103.556 63.009 103.796 62.763 103.796 62.4596V59.6343C103.796 59.3309 103.556 59.085 103.261 59.085Z" fill="#1F1F31"/>
<path d="M103.315 58.3013L103.292 60.1875C103.116 60.6871 102.648 61.0455 102.098 61.0455H97.0137C96.5886 61.0455 96.1914 60.8284 95.9572 60.4648L95.3742 59.5727C95.2648 59.4053 95.1528 59.2431 95.0356 59.0835L101.372 55.0522L103.174 57.9796C103.236 58.079 103.284 58.1888 103.315 58.3013Z" fill="#1F1F31"/>
<path d="M100.664 56.7295H101.458C102.747 56.7295 103.795 57.8047 103.795 59.131V60.3788C103.795 60.8183 103.447 61.1767 103.019 61.1767H99.3785C98.9508 61.1767 98.6021 60.8183 98.6021 60.3788V58.8511C98.6021 57.6817 99.5262 56.7321 100.664 56.7321V56.7295Z" fill="#1F1F31"/>
<path d="M82.3483 48.8799C83.6466 48.8799 84.7005 49.9629 84.7005 51.2971V55.14C84.7005 55.5847 84.3492 55.9431 83.919 55.9431H81.055C80.6222 55.9431 80.2734 55.5821 80.2734 55.14V51.0145C80.2734 49.8373 81.2052 48.8799 82.3508 48.8799H82.3483Z" fill="#1F1F31"/>
<path d="M67.4687 78.1802H59.9331C59.4129 78.1802 58.9912 78.8891 58.9912 79.7635V82.6136C58.9912 83.4881 59.4129 84.197 59.9331 84.197H67.4687C67.9889 84.197 68.4106 83.4881 68.4106 82.6136V79.7635C68.4106 78.8891 67.9889 78.1802 67.4687 78.1802Z" fill="white" stroke="#1F1F31" stroke-width="0.855171" stroke-miterlimit="10"/>
<path d="M111.822 68.3945C113.249 68.5853 114.35 69.8079 114.35 71.2875V71.9933C114.35 73.473 113.249 74.6955 111.822 74.8864V68.3945Z" fill="#1F1F31" stroke="#1F1F31" stroke-width="0.781102"/>
</svg>
